<svg id="Calque_2" data-name="Calque 2" xmlns="http://www.w3.org/2000/svg" viewBox="0 0 207.25 108.24"><path d="M471.84,138v-1.54h-.59a45,45,0,0,0-12.62-17.66A38.71,38.71,0,0,0,442,110.65c-4.43-1-10.48-1.53-18.5-1.53H390.32A5.93,5.93,0,0,0,384.4,115v36.82H409V132.33h14.32c8.93,0,12.83,1,14.35,1.56,3.47,1.35,6.55,4.2,9.15,8.45,2.71,4.44,4.09,11.22,4.09,20.14a54.11,54.11,0,0,1-2.23,16.71,24.81,24.81,0,0,1-5.63,9.86,15.63,15.63,0,0,1-6.3,3.55c-3,1-7.41,1.48-13.1,1.48H405.55v23.21h19.53A72,72,0,0,0,442,215.48a41.9,41.9,0,0,0,13.39-5.66,41,41,0,0,0,10.28-10.2,53.41,53.41,0,0,0,7.44-15.78,73.41,73.41,0,0,0,2.81-21.16A71.11,71.11,0,0,0,471.84,138Z" transform="translate(-268.63 -109.05)"/><path d="M366.33,109.05h-17.1a6,6,0,0,0-5.71,4.07L321.19,178l-21.67-64.82a6,6,0,0,0-5.72-4.12H274.67a6,6,0,0,0-6,6v70.25H293V165.91l16,47.17a6,6,0,0,0,5.72,4.09h11.46a6.06,6.06,0,0,0,5.71-4L348,166.55v44.58a6,6,0,0,0,6,6h12.26a6,6,0,0,0,6-6v-96A6,6,0,0,0,366.33,109.05Z" transform="translate(-268.63 -109.05)"/></svg>