<svg id="Calque_1" data-name="Calque 1" xmlns="http://www.w3.org/2000/svg" viewBox="0 0 551.44 231.09"><defs><style>.cls-1,.cls-7{fill:#0549fe;stroke:#0549fe;}.cls-1,.cls-2,.cls-3,.cls-4,.cls-5,.cls-6,.cls-7,.cls-8{stroke-miterlimit:10;}.cls-1,.cls-2,.cls-3,.cls-4{stroke-width:5.46px;}.cls-2,.cls-8{fill:#fa5051;stroke:#fa5051;}.cls-3,.cls-5{fill:#a001fd;stroke:#a001fd;}.cls-10,.cls-4,.cls-6{fill:#fd9545;}.cls-4,.cls-6{stroke:#fd9545;}.cls-5,.cls-6,.cls-7,.cls-8{stroke-width:4.03px;}.cls-9{fill:none;}.cls-11{fill:#f46300;}</style></defs><path class="cls-1" d="M190.79,208.32h20.62a55.86,55.86,0,0,1,13.8,1.49,25.32,25.32,0,0,1,10.44,5.6q12.21,10.44,12.21,31.76A62.2,62.2,0,0,1,246.63,260a38.21,38.21,0,0,1-3.78,10.47,32.67,32.67,0,0,1-6.56,8.34,26.79,26.79,0,0,1-6.87,4.52,31,31,0,0,1-8,2.4,61.18,61.18,0,0,1-9.67.7H191.11a12.9,12.9,0,0,1-6.5-1.31,6.05,6.05,0,0,1-2.85-3.68,23.07,23.07,0,0,1-.67-6.15V218c0-3.41.77-5.88,2.29-7.41S187.38,208.32,190.79,208.32Zm6.13,12.52v53h12q3.93,0,6.18-.21a19.15,19.15,0,0,0,4.63-1.07,12.64,12.64,0,0,0,4.16-2.4q7.94-6.71,7.94-23.12,0-11.56-3.49-17.32c-2.33-3.83-5.2-6.28-8.61-7.32a42.35,42.35,0,0,0-12.36-1.58Z" transform="translate(-172.08 -58.07)"/><path class="cls-2" d="M348.29,252.81V215.25q0-4.8,2.16-7.19a7.27,7.27,0,0,1,5.68-2.4,7.45,7.45,0,0,1,5.83,2.4q2.16,2.38,2.16,7.19v38.42a35.26,35.26,0,0,0,1.46,11,12.66,12.66,0,0,0,5.2,6.82q3.74,2.42,10.44,2.42,9.27,0,13.11-4.93T398.17,254V215.25q0-4.84,2.13-7.22a7.29,7.29,0,0,1,5.7-2.37,7.53,7.53,0,0,1,5.78,2.37q2.21,2.37,2.21,7.22v37.56a55.68,55.68,0,0,1-1.78,15.3,23.65,23.65,0,0,1-6.74,10.76,26.15,26.15,0,0,1-9.91,5.75,43.32,43.32,0,0,1-13.22,1.82,54.3,54.3,0,0,1-15.5-1.95,24.84,24.84,0,0,1-10.61-6,24.37,24.37,0,0,1-6-10.44A53.13,53.13,0,0,1,348.29,252.81Z" transform="translate(-172.08 -58.07)"/><path class="cls-3" d="M452.36,251.69h-5.55v25.1c0,3.3-.72,5.74-2.18,7.3a7.46,7.46,0,0,1-5.7,2.35,7.24,7.24,0,0,1-5.86-2.46q-2.08-2.44-2.08-7.19v-60.1q0-5.12,2.29-7.41t7.41-2.29h25.73a78.65,78.65,0,0,1,9.11.45,23.15,23.15,0,0,1,6.82,1.84,19.74,19.74,0,0,1,6.5,4.42,19.19,19.19,0,0,1,4.29,6.69,22.22,22.22,0,0,1,1.47,8.07q0,8.74-4.93,14t-14.95,7.41a28.78,28.78,0,0,1,8,6.61,67.18,67.18,0,0,1,6.85,9.29,70.66,70.66,0,0,1,4.69,8.9,17.51,17.51,0,0,1,1.67,5.46,5.56,5.56,0,0,1-1,3.07,7,7,0,0,1-2.69,2.4,8.56,8.56,0,0,1-3.94.88,7.66,7.66,0,0,1-4.48-1.26,11.92,11.92,0,0,1-3.12-3.17q-1.3-1.92-3.54-5.65l-6.34-10.55a58.58,58.58,0,0,0-6.1-8.84,15.17,15.17,0,0,0-5.46-4.16A18.93,18.93,0,0,0,452.36,251.69Zm9.05-32.82h-14.6v21.48H461a39.52,39.52,0,0,0,9.59-1,11.29,11.29,0,0,0,5.94-3.36,9.62,9.62,0,0,0,2.05-6.52,9.88,9.88,0,0,0-6.23-9.44Q469.57,218.87,461.41,218.87Z" transform="translate(-172.08 -58.07)"/><path class="cls-1" d="M530.2,215.14l30.43,46V214.72q0-4.53,1.94-6.8a6.57,6.57,0,0,1,5.25-2.26,6.76,6.76,0,0,1,5.38,2.26c1.32,1.51,2,3.78,2,6.8v61.43q0,10.29-8.52,10.29a11.29,11.29,0,0,1-3.84-.62,9.75,9.75,0,0,1-3.2-1.94,19.62,19.62,0,0,1-2.77-3.12q-1.27-1.78-2.55-3.65l-29.68-45.5v45.77c0,3-.7,5.24-2.08,6.76a6.87,6.87,0,0,1-5.33,2.3,6.8,6.8,0,0,1-5.38-2.32c-1.35-1.55-2-3.79-2-6.74V217.11a17,17,0,0,1,.86-6,8.53,8.53,0,0,1,3.35-3.91,9.1,9.1,0,0,1,5.07-1.52,8.81,8.81,0,0,1,3.65.69,8.6,8.6,0,0,1,2.66,1.87,18.92,18.92,0,0,1,2.34,3C528.52,212.5,529.35,213.79,530.2,215.14Z" transform="translate(-172.08 -58.07)"/><path class="cls-4" d="M644,220.52H608.32v19.19h32.82c2.41,0,4.22.54,5.41,1.62a5.51,5.51,0,0,1,1.78,4.29,5.73,5.73,0,0,1-1.76,4.34q-1.76,1.68-5.43,1.68H608.32v22.22h36.87a8.1,8.1,0,0,1,5.62,1.73,6,6,0,0,1,1.89,4.61,5.81,5.81,0,0,1-1.89,4.5,8,8,0,0,1-5.62,1.74h-43q-5.18,0-7.44-2.3c-1.5-1.52-2.26-4-2.26-7.4V218a13.27,13.27,0,0,1,1-5.57,6.3,6.3,0,0,1,3.17-3.14,13.3,13.3,0,0,1,5.52-1H644c2.52,0,4.4.56,5.62,1.68a5.66,5.66,0,0,1,1.84,4.4,5.74,5.74,0,0,1-1.84,4.45C648.36,220,646.48,220.52,644,220.52Z" transform="translate(-172.08 -58.07)"/><path class="cls-2" d="M680.78,216.58v56.85h32.08a8.45,8.45,0,0,1,5.88,1.87A6.07,6.07,0,0,1,720.8,280a5.92,5.92,0,0,1-2,4.66,8.68,8.68,0,0,1-5.91,1.79H674.65q-5.16,0-7.43-2.3t-2.26-7.4V216.58c0-3.2.71-5.59,2.15-7.19a7.27,7.27,0,0,1,5.68-2.4,7.55,7.55,0,0,1,5.78,2.37Q680.77,211.73,680.78,216.58Z" transform="translate(-172.08 -58.07)"/><rect class="cls-5" x="309.74" y="3.64" width="20.76" height="104.1" rx="4.03"/><path class="cls-6" d="M700.87,61.71H688.68a4,4,0,0,0-4,4v62.16l-43.07-64.4a4,4,0,0,0-3.35-1.78h-13a4,4,0,0,0-4,4V134h20.24V99.57L684.48,164a4,4,0,0,0,3.35,1.79h13a4,4,0,0,0,4-4v-96A4,4,0,0,0,700.87,61.71Z" transform="translate(-172.08 -58.07)"/><path class="cls-7" d="M607,86.33a45.75,45.75,0,0,0-17.84-19.41,49.35,49.35,0,0,0-20.67-6.64V79.46A26.37,26.37,0,0,1,588.21,95a45.51,45.51,0,0,1,3.61,18.81c0,11.26-2.76,20-8.21,25.91h0c-5.43,5.91-12.19,8.79-20.66,8.79a26.6,26.6,0,0,1-20.48-8.72c-5.47-5.86-8.25-14.14-8.25-24.6a68.31,68.31,0,0,1,1-12H513.91a79.58,79.58,0,0,0-.84,11.81,58.42,58.42,0,0,0,5.9,25.74,46.42,46.42,0,0,0,17.7,19.56A49.59,49.59,0,0,0,563,167.44,52,52,0,0,0,588.28,161a44.33,44.33,0,0,0,18.35-19.16,60.74,60.74,0,0,0,6.34-28A61.81,61.81,0,0,0,607,86.33Z" transform="translate(-172.08 -58.07)"/><path class="cls-8" d="M475,159.61l-16.73-26.16a70.38,70.38,0,0,0-11.23-13.58l0,0a31.15,31.15,0,0,0,13-7.92,28.15,28.15,0,0,0,7.72-20,31.41,31.41,0,0,0-4.59-16.58,25.32,25.32,0,0,0-12.66-10.79c-5-1.93-11.84-2.86-21-2.86H387a4,4,0,0,0-4,4V80.37h47.13c6.07,0,10.43,1.14,13,3.38a10.23,10.23,0,0,1,3.59,8.19,11.5,11.5,0,0,1-1.91,6.43,10.5,10.5,0,0,1-5.47,4.17c-2.82,1-6.94,1.56-12.24,1.56h-23.3v-14H383v71.65a4,4,0,0,0,4,4h12.72a4,4,0,0,0,4-4V123.15h10.72a34.36,34.36,0,0,1,6.11.35,14.88,14.88,0,0,1,4.58,2,24.5,24.5,0,0,1,5.47,5.52c2.32,2.95,5.33,7.3,8.94,12.91l12.71,20a4,4,0,0,0,3.4,1.87h16a4,4,0,0,0,3.4-6.2Z" transform="translate(-172.08 -58.07)"/><path class="cls-7" d="M269.78,61.71h-17.1a4,4,0,0,0-3.81,2.71l-23,66.84c-.44,1.28-.86,2.51-1.25,3.68-.26-.8-.54-1.62-.82-2.48l-22.73-68a4,4,0,0,0-3.82-2.75H178.12a4,4,0,0,0-4,4V134h20.3V104.38l20,58.69a4,4,0,0,0,3.81,2.74h11.46a4,4,0,0,0,3.81-2.71l20.08-57.84v56.52a4,4,0,0,0,4,4h12.26a4,4,0,0,0,4-4v-96A4,4,0,0,0,269.78,61.71Z" transform="translate(-172.08 -58.07)"/><path class="cls-6" d="M319.75,109l5-13.43q1-2.68,1.86-5.42c.79,2.22,1.66,4.56,2.59,7L333.67,109h21.69L337,64.21a4,4,0,0,0-3.73-2.5H319.62a4,4,0,0,0-3.76,2.58L298.7,109Z" transform="translate(-172.08 -58.07)"/><path class="cls-6" d="M376.35,160.25l-17-41.5H295l-16,41.59a4,4,0,0,0,3.75,5.47h13.5a4,4,0,0,0,3.78-2.66l9.59-26.43h34.58l10.21,26.51a4,4,0,0,0,3.75,2.58h14.48a4,4,0,0,0,3.73-5.56Z" transform="translate(-172.08 -58.07)"/><path class="cls-9" d="M313.78,241h1.81a31,31,0,0,0-2-8.23l-.39.39-6.86-6.86,1.48-1.48a14.57,14.57,0,0,0-1.34-1,17.59,17.59,0,0,0-5.23-2.19v.92h-9.7v-1a17.63,17.63,0,0,0-3.08,1,16.29,16.29,0,0,0-3.67,2.27l1.46,1.47-6.86,6.86-.26-.26c-.24.61-.47,1.23-.68,1.9a32.24,32.24,0,0,0-1.26,6.2h1.28v9.7h-1.3a34.48,34.48,0,0,0,1.28,6.41c.2.63.42,1.23.65,1.82l.39-.39,6.86,6.85L284.69,267a16.71,16.71,0,0,0,4.05,2.6,17.14,17.14,0,0,0,2.81.93v-1.75h9.7v1.73a18.53,18.53,0,0,0,4.86-2,15.49,15.49,0,0,0,2-1.45l-1.69-1.69,6.86-6.85.4.39a31.16,31.16,0,0,0,1.93-8.23h-1.84Z" transform="translate(-172.08 -58.07)"/><path class="cls-10" d="M332.62,223.39a34.72,34.72,0,0,0-14.29-15.18c-6.19-3.5-13.66-5.28-22.2-5.28a45.9,45.9,0,0,0-17,3,35.24,35.24,0,0,0-12.93,8.75,38.35,38.35,0,0,0-8.07,13.76,53.49,53.49,0,0,0-2.73,17.4A55.31,55.31,0,0,0,258,263a38.53,38.53,0,0,0,7.9,13.93A35.4,35.4,0,0,0,279,286a45.89,45.89,0,0,0,17.44,3.16,46.43,46.43,0,0,0,17.38-3.07,35.11,35.11,0,0,0,13.05-9,38.47,38.47,0,0,0,7.91-13.81,55.13,55.13,0,0,0,2.59-17.32C337.38,237.39,335.78,229.8,332.62,223.39Zm-9.51,27.26h-7.49a31.16,31.16,0,0,1-1.93,8.23l6.2,6.2a4.85,4.85,0,0,1-6.86,6.86L308.12,267a15.49,15.49,0,0,1-2,1.45,18.53,18.53,0,0,1-4.86,2v7.6a4.85,4.85,0,0,1-9.7,0v-7.58a17.14,17.14,0,0,1-2.81-.93,16.71,16.71,0,0,1-4.05-2.6l-4.93,4.93a4.85,4.85,0,0,1-6.86-6.86l6.21-6.2c-.23-.59-.45-1.19-.65-1.82a34.48,34.48,0,0,1-1.28-6.41h-8a4.85,4.85,0,0,1,0-9.7h8.06a32.24,32.24,0,0,1,1.26-6.2c.21-.67.44-1.29.68-1.9l-6.33-6.34a4.85,4.85,0,1,1,6.85-6.86l5.14,5.13a16.29,16.29,0,0,1,3.67-2.27,17.63,17.63,0,0,1,3.08-1v-8.33a4.85,4.85,0,0,1,9.7,0v8.41a17.59,17.59,0,0,1,5.23,2.19,14.57,14.57,0,0,1,1.34,1l5.11-5.12a4.85,4.85,0,1,1,6.86,6.86l-6.2,6.21a31,31,0,0,1,2,8.23h7.52a4.85,4.85,0,0,1,0,9.7Z" transform="translate(-172.08 -58.07)"/><path class="cls-11" d="M301.25,221.58v-8.41a4.85,4.85,0,0,0-9.7,0v8.33a20.08,20.08,0,0,1,4.58-.54A21.06,21.06,0,0,1,301.25,221.58Z" transform="translate(-172.08 -58.07)"/><path class="cls-11" d="M291.55,270.54v7.58a4.85,4.85,0,0,0,9.7,0v-7.6a19.9,19.9,0,0,1-9.7,0Z" transform="translate(-172.08 -58.07)"/><path class="cls-11" d="M277.2,241h-8.06a4.85,4.85,0,0,0,0,9.7h8a43.86,43.86,0,0,1-.28-4.82A42.35,42.35,0,0,1,277.2,241Z" transform="translate(-172.08 -58.07)"/><path class="cls-11" d="M323.11,241h-7.52a42.21,42.21,0,0,1,.3,4.88,46.21,46.21,0,0,1-.27,4.82h7.49a4.85,4.85,0,0,0,0-9.7Z" transform="translate(-172.08 -58.07)"/><path class="cls-11" d="M284.8,224.78l-5.14-5.13a4.85,4.85,0,1,0-6.85,6.86l6.33,6.34a20.57,20.57,0,0,1,3.38-5.87A16.33,16.33,0,0,1,284.8,224.78Z" transform="translate(-172.08 -58.07)"/><path class="cls-11" d="M313.35,232.07c.09.2.15.44.24.65l6.2-6.21a4.85,4.85,0,1,0-6.86-6.86l-5.11,5.12A18.34,18.34,0,0,1,313.35,232.07Z" transform="translate(-172.08 -58.07)"/><path class="cls-11" d="M282.66,265a20.86,20.86,0,0,1-3.55-6.14l-6.21,6.2a4.85,4.85,0,0,0,6.86,6.86l4.93-4.93A21.12,21.12,0,0,1,282.66,265Z" transform="translate(-172.08 -58.07)"/><path class="cls-11" d="M308.12,267l4.91,4.91a4.85,4.85,0,0,0,6.86-6.86l-6.2-6.2c-.19.46-.34,1-.55,1.4A19.65,19.65,0,0,1,308.12,267Z" transform="translate(-172.08 -58.07)"/></svg>