<svg id="Calque_4" data-name="Calque 4" fill="red" xmlns="http://www.w3.org/2000/svg" viewBox="0 0 390.37 79.86"><defs><style>.cls-1{fill:#c31c13;}</style></defs><rect class="cls-1" x="224.12" y="1.06" width="15.47" height="77.58" rx="3"/><path class="cls-1" d="M840.21,215h-9.08a3,3,0,0,0-3,3v46.32l-32.11-48a3,3,0,0,0-2.49-1.33h-9.72a3,3,0,0,0-3,3v50.86H795.9V243.23l32.1,48a3,3,0,0,0,2.49,1.33h9.72a3,3,0,0,0,3-3V218A3,3,0,0,0,840.21,215Z" transform="translate(-452.83 -213.95)"/><path class="cls-1" d="M770.22,233.36a34,34,0,0,0-13.29-14.46,36.62,36.62,0,0,0-15.41-5v14.29a19.64,19.64,0,0,1,14.73,11.59,33.91,33.91,0,0,1,2.69,14c0,8.39-2.06,14.89-6.12,19.31h0a21.27,21.27,0,0,1-30.66,0c-4.08-4.36-6.15-10.53-6.15-18.34a51.75,51.75,0,0,1,.72-9H700.88a59,59,0,0,0-.63,8.81,43.58,43.58,0,0,0,4.4,19.18,34.49,34.49,0,0,0,13.19,14.58,37,37,0,0,0,19.64,5.32A38.67,38.67,0,0,0,756.3,289,33.06,33.06,0,0,0,770,274.75a45.29,45.29,0,0,0,4.72-20.85A46,46,0,0,0,770.22,233.36Z" transform="translate(-452.83 -213.95)"/><path class="cls-1" d="M671.89,288l-12.47-19.51a51.9,51.9,0,0,0-8.37-10.11v0a23.17,23.17,0,0,0,9.71-5.9,21,21,0,0,0,5.75-14.9,23.35,23.35,0,0,0-3.42-12.35,18.9,18.9,0,0,0-9.43-8.05c-3.71-1.43-8.82-2.13-15.64-2.13H606.27a3,3,0,0,0-3,3v10.91H638.4c4.53,0,7.78.85,9.66,2.51a7.68,7.68,0,0,1,2.68,6.11,8.62,8.62,0,0,1-1.43,4.8,7.83,7.83,0,0,1-4.08,3.1,27.88,27.88,0,0,1-9.12,1.16H618.75V236.2H603.27v53.39a3,3,0,0,0,3,3h9.48a3,3,0,0,0,3-3V260.8h8a25.9,25.9,0,0,1,4.56.26,11.36,11.36,0,0,1,3.41,1.51,18.16,18.16,0,0,1,4.08,4.12c1.73,2.2,4,5.44,6.66,9.62l9.47,14.89a3,3,0,0,0,2.54,1.39h11.91a3,3,0,0,0,2.53-4.61Z" transform="translate(-452.83 -213.95)"/><path class="cls-1" d="M524.15,215H511.4a3,3,0,0,0-2.84,2l-17.14,49.81c-.32,1-.63,1.87-.93,2.75l-.61-1.85-16.94-50.68a3,3,0,0,0-2.85-2.05H455.83a3,3,0,0,0-3,3v50.86H468V246.81l14.86,43.75a3,3,0,0,0,2.84,2h8.54a3,3,0,0,0,2.84-2l15-43.11v42.12a3,3,0,0,0,3,3h9.14a3,3,0,0,0,3-3V218A3,3,0,0,0,524.15,215Z" transform="translate(-452.83 -213.95)"/><path class="cls-1" d="M559.15,250.24l3.75-10c.49-1.33,1-2.68,1.38-4,.59,1.65,1.24,3.39,1.93,5.23l3.32,8.81H585.7L572,216.87a3,3,0,0,0-2.78-1.86h-10.2a3,3,0,0,0-2.8,1.92l-12.79,33.31Z" transform="translate(-452.83 -213.95)"/><path class="cls-1" d="M601.34,288.45l-12.67-30.93h-48l-11.9,31a3,3,0,0,0,2.8,4.07h10.06a3,3,0,0,0,2.82-2l7.14-19.7h25.77L585,290.67a3,3,0,0,0,2.8,1.92h10.79a3,3,0,0,0,2.78-4.14Z" transform="translate(-452.83 -213.95)"/></svg>
